<?xml version="1.0" standalone="no"?><!DOCTYPE svg PUBLIC "-//W3C//DTD SVG 1.1//EN" "http://www.w3.org/Graphics/SVG/1.1/DTD/svg11.dtd"><svg width="84" height="64" viewBox="0 0 84 64" version="1.1" xmlns="http://www.w3.org/2000/svg" xmlns:xlink="http://www.w3.org/1999/xlink"><defs><style type="text/css"><![CDATA[
@font-face { font-family: ifont; src: url("//at.alicdn.com/t/font_1442373896_4754455.eot?#iefix") format("embedded-opentype"), url("//at.alicdn.com/t/font_1442373896_4754455.woff") format("woff"), url("//at.alicdn.com/t/font_1442373896_4754455.ttf") format("truetype"), url("//at.alicdn.com/t/font_1442373896_4754455.svg#ifont") format("svg"); }

]]></style></defs><g class="transform-group"><g transform="scale(0.0625, 0.0625)"><path d="M1086.656 415.616c-13.664-211.584-160.8-415.616-430.656-415.616-246.816 0-437.152 183.456-447.232 428.288-135.04 42.016-208.768 186.528-208.768 291.712 0 161.952 134.592 304 288 304l208 0c8.832 0 16-7.168 16-16s-7.168-16-16-16l-208 0c-136.384 0-256-127.104-256-272 0-97.632 85.568-272 256-272l48 0c8.832 0 16-7.168 16-16s-7.168-16-16-16l-48 0c-16.288 0-31.68 1.824-46.688 4.448 12.544-191.68 158.24-388.448 414.688-388.448 274.816 0 400 215.648 400 416l0 48c0 8.832 7.168 16 16 16s16-7.168 16-16l0-48c0-0.096 0-0.192 0-0.288 96.608 10.592 224 114.272 224 272.288 0 122.432-118.112 272-256 272l-240 0c-103.616 0-144-40.384-144-144l0-438.944 130.496 130.24c3.136 3.136 7.232 4.704 11.328 4.704s8.192-1.568 11.328-4.672c6.24-6.24 6.24-16.416 0-22.624l-142.752-142.464c-19.008-18.944-33.76-18.944-52.736 0l-142.752 142.464c-6.24 6.208-6.24 16.384 0 22.624s16.384 6.24 22.624 0l130.464-130.272 0 438.944c0 121.728 54.272 176 176 176l240 0c155.104 0 288-167.168 288-304 0-165.344-135.136-294.656-257.344-304.384z" fill="#ccc"></path></g></g></svg>